<?xml version="1.0" standalone="no"?>
<!DOCTYPE svg PUBLIC "-//W3C//DTD SVG 20010904//EN"
 "http://www.w3.org/TR/2001/REC-SVG-20010904/DTD/svg10.dtd">
<svg version="1.0" xmlns="http://www.w3.org/2000/svg"
 width="1000.000000pt" height="1000.000000pt" viewBox="0 0 1000.000000 1000.000000"
 preserveAspectRatio="xMidYMid meet">
<metadata>
Created by potrace 1.14, written by Peter Selinger 2001-2017
</metadata>
<g transform="translate(0.000000,1000.000000) scale(0.100000,-0.100000)"
fill="#000000" stroke="none">
<path d="M4768 9995 c-2 -2 -46 -6 -98 -9 -52 -3 -106 -8 -120 -10 -14 -3 -44
-7 -66 -10 -42 -5 -203 -31 -259 -41 -16 -3 -48 -11 -70 -17 -22 -5 -51 -12
-65 -14 -88 -16 -379 -106 -527 -164 -922 -364 -1695 -1074 -2134 -1960 -87
-177 -183 -400 -172 -400 3 0 1 -6 -4 -12 -24 -31 -120 -354 -162 -543 -40
-179 -72 -400 -87 -595 -13 -163 -3 -560 22 -840 12 -147 14 -167 19 -200 3
-19 7 -53 10 -75 2 -22 7 -58 11 -80 3 -22 7 -51 9 -65 19 -124 27 -169 61
-339 14 -70 28 -137 30 -151 21 -108 116 -451 184 -665 45 -140 145 -415 174
-480 8 -16 35 -82 61 -145 51 -123 258 -549 323 -665 175 -312 315 -529 506
-785 55 -74 108 -144 117 -155 70 -85 200 -238 233 -275 69 -77 367 -371 446
-441 393 -345 868 -640 1235 -766 87 -30 213 -62 268 -69 23 -3 49 -8 57 -11
26 -9 343 -11 415 -3 228 28 408 82 605 184 406 208 680 393 990 665 97 85
396 383 487 486 716 809 1274 1907 1542 3037 27 112 34 144 45 203 2 11 16 79
30 150 24 121 46 261 61 380 4 28 8 61 10 75 3 13 7 58 10 100 4 41 8 82 10
90 25 96 25 747 1 960 -3 19 -7 58 -10 85 -9 73 -16 127 -21 155 -3 14 -8 41
-10 60 -3 19 -10 55 -15 80 -5 25 -12 56 -14 70 -26 136 -93 373 -150 530 -32
90 -41 113 -71 185 -7 17 -25 59 -40 95 -92 221 -282 548 -450 774 -218 296
-518 601 -793 808 -53 40 -99 75 -102 78 -12 13 -265 173 -361 228 -101 58
-371 192 -386 192 -5 0 -20 6 -35 14 -59 31 -328 125 -463 162 -85 24 -103 28
-150 38 -11 2 -50 11 -86 20 -79 18 -109 24 -169 32 -25 3 -54 8 -64 10 -26 5
-155 21 -236 30 -64 6 -576 14 -582 9z m-338 -2518 c84 -20 129 -36 219 -81
76 -38 187 -108 232 -148 96 -84 112 -98 119 -98 4 0 20 12 36 28 112 106 257
200 399 257 232 93 493 80 685 -35 117 -70 221 -189 284 -323 30 -64 42 -101
76 -237 16 -65 22 -262 10 -330 -67 -377 -375 -768 -984 -1250 -80 -64 -82
-65 -207 -148 -107 -71 -168 -97 -255 -107 -81 -9 -164 7 -249 49 -60 30 -109
63 -280 189 -154 114 -377 310 -515 453 -266 275 -405 492 -478 744 -25 87
-22 330 6 443 71 288 234 487 465 571 40 15 95 31 122 35 75 12 241 6 315 -12z"/>
</g>
</svg>
