<?xml version="1.0" standalone="no"?>
<!DOCTYPE svg PUBLIC "-//W3C//DTD SVG 20010904//EN"
 "http://www.w3.org/TR/2001/REC-SVG-20010904/DTD/svg10.dtd">
<svg version="1.0" xmlns="http://www.w3.org/2000/svg"
 width="1000.000000pt" height="1000.000000pt" viewBox="0 0 1000.000000 1000.000000"
 preserveAspectRatio="xMidYMid meet">
<metadata>
Created by potrace 1.14, written by Peter Selinger 2001-2017
</metadata>
<g transform="translate(0.000000,1000.000000) scale(0.100000,-0.100000)"
fill="#000000" stroke="none">
<path d="M4675 9979 c-738 -63 -1448 -334 -2044 -780 -576 -430 -1038 -1026
-1317 -1697 -134 -322 -230 -686 -281 -1062 -25 -188 -25 -845 0 -1090 151
-1460 716 -2827 1610 -3900 242 -290 619 -644 918 -862 297 -217 656 -412 901
-492 196 -64 551 -112 638 -88 19 6 78 15 131 21 215 24 418 94 684 238 747
402 1394 1025 1935 1863 318 493 606 1107 799 1705 166 510 285 1103 321 1590
6 83 15 183 20 223 13 94 13 288 0 422 -5 58 -17 179 -25 270 -102 1132 -697
2188 -1616 2872 -597 443 -1294 705 -2044 768 -140 12 -487 11 -630 -1z m-226
-2510 c153 -35 345 -142 482 -268 l66 -60 74 65 c217 190 446 287 684 287 131
-1 205 -18 325 -75 70 -34 101 -57 171 -128 72 -73 94 -103 137 -191 29 -57
61 -140 72 -184 28 -107 43 -264 35 -353 -34 -390 -395 -854 -1052 -1349 -230
-173 -339 -221 -473 -210 -120 10 -206 55 -430 222 -264 198 -574 487 -720
670 -252 318 -348 587 -311 866 31 236 105 395 245 534 183 181 413 239 695
174z"/>
</g>
</svg>
